<?xml version="1.0" encoding="utf-8"?>
<!-- Generator: Adobe Illustrator 16.0.0, SVG Export Plug-In . SVG Version: 6.00 Build 0)  -->
<!DOCTYPE svg PUBLIC "-//W3C//DTD SVG 1.1//EN" "http://www.w3.org/Graphics/SVG/1.1/DTD/svg11.dtd">
<svg version="1.1" id="Layer_1" xmlns="http://www.w3.org/2000/svg" xmlns:xlink="http://www.w3.org/1999/xlink" x="0px" y="0px"
	 width="55px" height="55px" viewBox="0 0 55 55" enable-background="new 0 0 55 55" xml:space="preserve">
<g>
	<defs>
		<path id="SVGID_1_" d="M10.143,45.47c-0.53,0-0.956,0.428-0.956,0.954c0,0.527,0.426,0.954,0.956,0.954h35.642
			c0.529,0,0.956-0.427,0.956-0.954c0-0.526-0.427-0.954-0.956-0.954H10.143z M10.143,40.43c-0.53,0-0.956,0.427-0.956,0.953
			c0,0.528,0.426,0.955,0.956,0.955h35.642c0.529,0,0.956-0.427,0.956-0.955c0-0.526-0.427-0.953-0.956-0.953H10.143z
			 M10.143,35.389c-0.53,0-0.956,0.428-0.956,0.954c0,0.521,0.426,0.955,0.956,0.955h35.642c0.529,0,0.956-0.435,0.956-0.955
			c0-0.526-0.427-0.954-0.956-0.954H10.143z M6.434,32.171h35.319c5.07,0,9.19,4.123,9.19,9.188c0,5.07-4.12,9.188-9.19,9.188H6.434
			V32.171z M2.145,28.351c-1.054,0-1.911,0.856-1.911,1.917c0,1.054,0.857,1.903,1.911,1.903H4.52v18.377H2.145
			c-1.054,0-1.911,0.854-1.911,1.914c0,1.055,0.857,1.91,1.911,1.91h39.608c7.173,0,13.014-5.841,13.014-13.013
			c0-7.173-5.841-13.009-13.014-13.009H2.145z M10.143,18.116c-0.53,0-0.956,0.427-0.956,0.954c0,0.53,0.426,0.955,0.956,0.955
			h35.642c0.529,0,0.956-0.425,0.956-0.955c0-0.527-0.427-0.954-0.956-0.954H10.143z M10.143,13.073
			c-0.53,0-0.956,0.429-0.956,0.957c0,0.526,0.426,0.951,0.956,0.951h35.642c0.529,0,0.956-0.424,0.956-0.951
			c0-0.528-0.427-0.957-0.956-0.957H10.143z M10.143,8.033c-0.53,0-0.956,0.428-0.956,0.951c0,0.53,0.426,0.96,0.956,0.96h35.642
			c0.529,0,0.956-0.43,0.956-0.96c0-0.523-0.427-0.951-0.956-0.951H10.143z M6.434,4.817h35.319c5.07,0,9.19,4.124,9.19,9.188
			c0,5.067-4.12,9.19-9.19,9.19H6.434V4.817z M2.145,1C1.09,1,0.233,1.853,0.233,2.906c0,1.054,0.857,1.912,1.911,1.912H4.52v18.378
			H2.145c-1.054,0-1.911,0.853-1.911,1.906s0.857,1.912,1.911,1.912h39.608c7.173,0,13.014-5.833,13.014-13.008
			C54.767,6.833,48.926,1,41.753,1H2.145z"/>
	</defs>
	<clipPath id="SVGID_2_">
		<use xlink:href="#SVGID_1_"  overflow="visible"/>
	</clipPath>
	
		<linearGradient id="SVGID_3_" gradientUnits="userSpaceOnUse" x1="-38.2588" y1="36.9111" x2="-35.0847" y2="36.9111" gradientTransform="matrix(15.6188 15.6188 15.6188 -15.6188 22.1406 1175.3223)">
		<stop  offset="0" style="stop-color:#474648"/>
		<stop  offset="1" style="stop-color:#333233"/>
	</linearGradient>
	<polygon clip-path="url(#SVGID_2_)" fill="url(#SVGID_3_)" points="27.499,-26.267 81.452,27.684 27.499,81.637 -26.451,27.684 	
		"/>
</g>
</svg>
